<svg width="574" height="207" viewBox="0 0 574 207" fill="none" xmlns="http://www.w3.org/2000/svg">
    <g clip-path="url(#clip0_20345_79897)">
        <path
            d="M385.545 103.23C385.545 119.048 382.048 133.342 375.148 145.72C368.278 158.042 358.625 167.8 346.465 174.707C334.296 181.616 320.297 185.113 304.86 185.113C289.423 185.113 275.414 181.616 263.247 174.707C251.087 167.8 241.435 158.052 234.565 145.72C227.665 133.342 224.168 119.048 224.168 103.23C224.168 92.0893 226.55 82.0566 231.258 73.3934C235.927 64.7989 242.484 57.9861 250.744 53.1541C259.034 48.3129 268.583 45.8649 279.14 45.8649C289.7 45.8649 299.258 48.3129 307.539 53.1541C315.799 57.9861 322.356 64.7898 327.025 73.3934C331.733 82.0566 334.115 92.1008 334.115 103.23C334.115 87.4108 330.618 73.1186 323.718 60.7387C316.848 48.4091 307.196 38.6604 295.035 31.7514C282.878 24.8423 268.879 21.3455 253.423 21.3455C237.965 21.3455 223.978 24.8423 211.818 31.7514C199.658 38.6604 190.005 48.4183 183.135 60.7387C176.235 73.1186 172.738 87.4108 172.738 103.23C172.738 123.012 177.35 140.966 186.451 156.584C195.561 172.231 208.348 184.6 224.445 193.339C240.482 202.048 258.892 206.458 279.152 206.458C299.409 206.458 317.83 202.048 333.868 193.339C349.962 184.6 362.75 172.241 371.859 156.584C380.96 140.966 385.572 123.012 385.572 103.23H385.545Z"
            fill="white" />
        <path
            d="M172.706 103.23C172.706 87.4108 176.202 73.1187 183.1 60.7387C189.972 48.4183 199.625 38.6605 211.785 31.7514C223.952 24.8424 237.951 21.3455 253.388 21.3455C268.825 21.3455 282.833 24.8424 295.003 31.7514C307.161 38.6605 316.815 48.4092 323.685 60.7387C330.583 73.1187 334.082 87.4108 334.082 103.23C334.082 114.369 331.698 124.404 326.992 133.065C322.323 141.662 315.767 148.475 307.504 153.307C299.214 158.145 289.667 160.596 279.108 160.596C268.548 160.596 258.992 158.145 250.711 153.307C242.449 148.475 235.892 141.671 231.223 133.065C226.517 124.404 224.133 114.36 224.133 103.23C224.133 119.048 227.632 133.342 234.53 145.72C241.4 158.052 251.055 167.8 263.212 174.709C275.373 181.616 289.372 185.115 304.827 185.115C320.282 185.115 334.272 181.616 346.43 174.709C358.59 167.8 368.243 158.042 375.115 145.72C382.013 133.342 385.51 119.048 385.51 103.23C385.51 83.4468 380.897 65.4951 371.797 49.8771C362.687 34.2293 349.9 21.8608 333.805 13.122C317.768 4.41295 299.356 6.10352e-05 279.098 6.10352e-05C258.838 6.10352e-05 240.42 4.41295 224.383 13.122C208.286 21.8608 195.498 34.2201 186.389 49.8771C177.288 65.4951 172.676 83.4468 172.676 103.23H172.706Z"
            fill="white" />
        <path
            d="M172.703 103.23C172.703 87.4107 176.2 73.1186 183.1 60.7387C189.97 48.4183 199.623 38.6604 211.783 31.7513C223.952 24.8423 237.951 21.3454 253.388 21.3454C268.825 21.3454 282.833 24.8423 295 31.7513C307.161 38.6604 316.813 48.4091 323.683 60.7387C330.583 73.1186 334.08 87.4107 334.08 103.23C334.08 114.369 331.698 124.404 326.99 133.065C322.321 141.662 315.764 148.475 307.504 153.307C299.214 158.145 289.665 160.596 279.108 160.596C268.548 160.596 258.99 158.145 250.709 153.307C242.449 148.475 235.892 141.671 231.223 133.065C226.515 124.404 224.133 114.36 224.133 103.23C224.133 119.048 227.63 133.342 234.53 145.72C241.4 158.052 251.052 167.8 263.212 174.709C275.37 181.616 289.369 185.113 304.825 185.113C320.282 185.113 334.27 181.616 346.43 174.709C358.59 167.8 368.243 158.042 375.113 145.72C382.013 133.342 385.51 119.048 385.51 103.23C385.51 83.4467 380.897 65.4951 371.797 49.877C362.687 34.2292 349.9 21.8607 333.805 13.1219C317.766 4.41289 299.356 0 279.096 0C258.838 0 240.417 4.41289 224.38 13.1219C208.286 21.8607 195.498 34.22 186.389 49.877C177.288 65.4951 172.676 83.4467 172.676 103.23H172.703Z"
            fill="url(#paint0_linear_20345_79897)" />
        <path
            d="M558.613 101.357C548.578 90.9509 533.588 83.8037 514.015 80.1075L476.289 73.1985C464.339 70.929 459.29 68.4719 457.156 66.8047C454.536 64.7643 453.267 62.591 453.267 60.1613C453.267 58.6659 453.267 54.1202 461.852 49.6707C468.418 46.2677 476.871 44.5433 486.972 44.5433C505.324 44.5433 522.477 50.5844 537.953 62.5063C539.134 63.42 540.611 63.917 542.098 63.917C544.186 63.917 546.11 62.9735 547.397 61.3338L568.094 34.8816C570.325 32.0328 569.915 27.9451 567.151 25.5703C557.26 17.0903 545.549 10.6965 532.312 6.56985C518.332 2.2142 503.524 0.00430298 488.295 0.00430298C472.098 0.00430298 457.346 2.5096 444.444 7.44693C431.312 12.4781 420.888 19.8452 413.455 29.3351C405.916 38.9693 402.096 50.4149 402.096 63.3353C402.096 77.6664 406.917 89.8448 416.418 99.5362C425.748 109.056 439.841 115.651 458.307 119.157L498.951 126.856C508.031 128.677 514.434 131.01 517.99 133.784C521.105 136.225 522.554 138.92 522.554 142.294C522.554 147.029 519.79 151.032 514.111 154.529C507.88 158.36 499.379 160.314 488.85 160.314C466.066 160.314 446.072 153.185 429.435 139.122C428.226 138.1 426.691 137.539 425.109 137.539C423.08 137.539 421.172 138.435 419.887 140.008L397.484 167.259C395.157 170.09 395.501 174.207 398.256 176.637C408.137 185.346 421.069 192.313 436.696 197.344C453.249 202.68 471.42 205.386 490.716 205.386C506.973 205.386 521.506 202.68 533.922 197.344C546.538 191.921 556.458 184.119 563.434 174.141C570.448 164.097 574.002 152.404 574.002 139.387C574.002 124.722 568.836 111.925 558.641 101.348L558.613 101.357Z"
            fill="url(#paint1_linear_20345_79897)" />
        <path
            d="M98.7975 102.229L192.324 11.9171C195.935 8.40186 195.253 5.17979 194.763 4.00729C194.275 2.83708 192.615 0.00430298 187.54 0.00430298H140.484C136.969 0.00430298 132.478 1.76303 129.843 4.3004L51.0585 81.6281V6.93623C51.0585 3.1279 47.9344 0.00430298 44.127 0.00430298H6.93149C3.12407 0.00430298 0 3.1279 0 6.93623V197.525C0 201.331 3.12407 204.457 6.93149 204.457H44.127C47.9344 204.457 51.0585 201.331 51.0585 197.525V122.833L129.843 200.161C132.38 202.602 136.871 204.457 140.386 204.457H187.442C192.519 204.457 194.179 201.624 194.667 200.454C195.155 199.281 195.837 196.059 192.226 192.544L98.7975 102.229Z"
            fill="white" />
    </g>
    <defs>
        <linearGradient id="paint0_linear_20345_79897" x1="279.092" y1="18.8379" x2="279.092"
            y2="166.277" gradientUnits="userSpaceOnUse">
            <stop offset="0.0358168" stop-color="#82E1FF" />
            <stop offset="0.228529" stop-color="#78E6A0" />
            <stop offset="0.436866" stop-color="#FFB400" />
            <stop offset="0.619161" stop-color="#FF8700" />
            <stop offset="0.811872" stop-color="#FF5A00" />
            <stop offset="1" stop-color="#F40000" />
        </linearGradient>
        <linearGradient id="paint1_linear_20345_79897" x1="484.973" y1="20.9032" x2="484.973"
            y2="184.487" gradientUnits="userSpaceOnUse">
            <stop offset="0.0358168" stop-color="#82E1FF" />
            <stop offset="0.228529" stop-color="#78E6A0" />
            <stop offset="0.436866" stop-color="#FFB400" />
            <stop offset="0.619161" stop-color="#FF8700" />
            <stop offset="0.811872" stop-color="#FF5A00" />
            <stop offset="1" stop-color="#F40000" />
        </linearGradient>
        <clipPath id="clip0_20345_79897">
            <rect width="574.001" height="206.458" fill="white" />
        </clipPath>
    </defs>
</svg>